<?xml version="1.0" encoding="UTF-8" standalone="no" ?>
<!DOCTYPE svg PUBLIC "-//W3C//DTD SVG 1.1//EN" "http://www.w3.org/Graphics/SVG/1.1/DTD/svg11.dtd">
<svg xmlns="http://www.w3.org/2000/svg" xmlns:xlink="http://www.w3.org/1999/xlink" version="1.1" width="1080" height="1080" viewBox="0 0 1080 1080" xml:space="preserve">
<desc>Created with Fabric.js 5.2.4</desc>
<defs>
</defs>
<g transform="matrix(1 0 0 1 540 540)" id="bbbd9393-16c7-44f0-8b5c-16bfd131ab9a"  >
<rect style="stroke: none; stroke-width: 1; stroke-dasharray: none; stroke-linecap: butt; stroke-dashoffset: 0; stroke-linejoin: miter; stroke-miterlimit: 4; fill: rgb(255,255,255); fill-rule: nonzero; opacity: 1;" vector-effect="non-scaling-stroke"  x="-540" y="-540" rx="0" ry="0" width="1080" height="1080" />
</g>
<g transform="matrix(Infinity NaN NaN Infinity 0 0)" id="2c258675-4de0-49f7-91dd-b55f919563be"  >
</g>
<g transform="matrix(2.5 0 0 2.5 540 540)"  >
<g style="" vector-effect="non-scaling-stroke"   >
		<g transform="matrix(0.13 0 0 -0.13 0 0)"  >
<path style="stroke: none; stroke-width: 1; stroke-dasharray: none; stroke-linecap: butt; stroke-dashoffset: 0; stroke-linejoin: miter; stroke-miterlimit: 4; fill: rgb(0,0,0); fill-rule: nonzero; opacity: 1;" vector-effect="non-scaling-stroke"  transform=" translate(-1440.01, -1440.49)" d="M 1265 2856 C 926 2805 665 2676 434 2446 C -52 1959 -125 1222 257 646 C 389 447 618 249 831 152 C 1232 -33 1648 -33 2049 152 C 2330 281 2599 550 2728 831 C 2913 1232 2913 1648 2728 2049 C 2599 2331 2331 2599 2049 2728 C 1798 2844 1504 2892 1265 2856 z M 1745 2816 C 1800 2803 1879 2779 1920 2764 C 1993 2738 2170 2654 2170 2646 C 2170 2643 2137 2657 2096 2675 C 1920 2757 1776 2790 1564 2797 C 1374 2803 1256 2788 1094 2735 C 722 2613 394 2328 244 1994 C 223 1949 202 1914 197 1917 C 191 1921 189 1914 192 1902 C 196 1890 194 1882 190 1885 C 168 1898 120 1586 120 1435 C 121 1339 143 1172 166 1090 C 170 1076 170 1068 166 1072 C 153 1084 112 1246 100 1339 C 83 1460 93 1696 119 1810 C 130 1857 153 1936 170 1985 C 290 2321 507 2557 840 2713 C 971 2775 1006 2781 890 2723 C 742 2648 645 2577 525 2456 C 411 2341 344 2250 278 2120 C 235 2036 197 1940 204 1933 C 206 1931 214 1946 220 1967 C 272 2124 396 2318 534 2455 C 730 2649 954 2769 1238 2831 C 1364 2859 1604 2852 1745 2816 z M 1795 2765 C 1890 2744 2010 2704 2099 2664 C 2139 2645 2177 2633 2183 2637 C 2189 2640 2190 2638 2186 2632 C 2182 2625 2193 2614 2212 2604 C 2408 2503 2595 2293 2713 2040 C 2775 1909 2781 1874 2723 1990 C 2648 2138 2577 2235 2456 2355 C 2341 2469 2250 2536 2120 2602 C 2036 2645 1940 2683 1933 2676 C 1931 2674 1946 2666 1967 2660 C 2124 2608 2318 2484 2455 2346 C 2654 2146 2781 1902 2835 1615 C 2870 1431 2843 1177 2764 960 C 2737 883 2654 710 2645 710 C 2642 710 2649 728 2660 749 C 2687 803 2740 938 2740 953 C 2739 959 2724 926 2706 879 C 2687 832 2662 774 2651 751 C 2639 728 2632 704 2636 697 C 2640 690 2640 688 2635 692 C 2631 696 2600 659 2568 609 C 2448 423 2271 275 2040 167 C 1931 116 1873 96 1930 130 C 1970 154 1968 153 1883 121 C 1847 108 1823 93 1827 87 C 1830 81 1828 80 1822 84 C 1815 88 1762 78 1703 63 C 1604 37 1581 35 1420 36 C 1229 36 1148 50 970 112 C 887 142 710 225 710 235 C 710 238 736 227 768 211 C 877 156 1096 89 1160 91 C 1174 91 1144 100 1093 111 C 922 147 741 222 596 318 C 424 431 270 619 167 840 C 105 971 99 1006 157 890 C 230 745 303 645 419 529 C 636 312 882 190 1205 140 C 1467 100 1700 124 1940 217 C 1948 220 1952 219 1948 215 C 1944 211 1895 190 1838 169 C 1781 148 1740 131 1747 130 C 1759 130 1895 179 1942 200 C 1957 207 1967 217 1963 223 C 1960 229 1962 230 1968 226 C 1985 216 2098 282 2210 366 C 2393 504 2536 677 2631 872 C 2676 965 2674 942 2628 835 C 2513 568 2318 355 2044 194 C 2001 169 1974 151 1985 154 C 2016 164 2152 248 2223 301 C 2312 368 2456 522 2519 616 C 2634 790 2705 981 2740 1205 C 2774 1426 2762 1631 2705 1817 C 2692 1859 2683 1896 2685 1898 C 2692 1905 2759 1682 2774 1604 C 2781 1560 2788 1536 2789 1550 C 2792 1631 2692 1949 2669 1934 C 2664 1931 2663 1936 2666 1944 C 2669 1952 2657 1985 2639 2017 C 2480 2300 2249 2521 1994 2636 C 1949 2657 1914 2678 1917 2683 C 1921 2689 1914 2691 1902 2688 C 1890 2684 1882 2686 1885 2690 C 1891 2700 1785 2724 1645 2745 C 1459 2773 1245 2759 1080 2710 C 1045 2699 1014 2692 1012 2695 C 1001 2705 1184 2753 1350 2784 C 1405 2794 1727 2781 1795 2765 z M 1710 2712 C 2345 2564 2767 2018 2737 1380 C 2703 661 2098 110 1380 143 C 661 177 110 782 143 1500 C 167 2001 469 2438 930 2635 C 1019 2673 1163 2714 1265 2730 C 1361 2744 1612 2734 1710 2712 z M 211 2113 C 174 2039 126 1894 103 1788 C 89 1724 85 1661 85 1510 C 86 1333 88 1305 112 1210 C 181 935 305 714 505 514 C 622 395 728 319 872 249 C 965 204 942 206 835 252 C 425 429 132 805 45 1265 C 10 1449 37 1703 116 1920 C 143 1997 226 2170 235 2170 C 238 2170 227 2144 211 2113 z M 1880 100 C 1872 95 1858 91 1850 91 C 1840 91 1842 94 1855 100 C 1882 112 1898 112 1880 100 z" stroke-linecap="round" />
</g>
		<g transform="matrix(0.13 0 0 -0.13 180.83 9.86)"  >
<path style="stroke: none; stroke-width: 1; stroke-dasharray: none; stroke-linecap: butt; stroke-dashoffset: 0; stroke-linejoin: miter; stroke-miterlimit: 4; fill: rgb(0,0,0); fill-rule: nonzero; opacity: 1;" vector-effect="non-scaling-stroke"  transform=" translate(-2796.25, -1366.51)" d="M 2794 1365 C 2794 1277 2796 1242 2797 1288 C 2799 1334 2799 1406 2797 1448 C 2796 1490 2794 1453 2794 1365 z" stroke-linecap="round" />
</g>
		<g transform="matrix(0.13 0 0 -0.13 179.37 36.04)"  >
<path style="stroke: none; stroke-width: 1; stroke-dasharray: none; stroke-linecap: butt; stroke-dashoffset: 0; stroke-linejoin: miter; stroke-miterlimit: 4; fill: rgb(0,0,0); fill-rule: nonzero; opacity: 1;" vector-effect="non-scaling-stroke"  transform=" translate(-2785.25, -1170.18)" d="M 2782 1170 C 2782 1151 2784 1143 2787 1153 C 2789 1162 2789 1178 2787 1188 C 2784 1197 2782 1189 2782 1170 z" stroke-linecap="round" />
</g>
		<g transform="matrix(0.13 0 0 -0.13 176.14 52.51)"  >
<path style="stroke: none; stroke-width: 1; stroke-dasharray: none; stroke-linecap: butt; stroke-dashoffset: 0; stroke-linejoin: miter; stroke-miterlimit: 4; fill: rgb(0,0,0); fill-rule: nonzero; opacity: 1;" vector-effect="non-scaling-stroke"  transform=" translate(-2761.06, -1046.69)" d="M 2758 1053 C 2748 1011 2742 975 2744 973 C 2749 967 2783 1107 2778 1120 C 2777 1125 2767 1096 2758 1053 z" stroke-linecap="round" />
</g>
		<g transform="matrix(0.13 0 0 -0.13 27.49 177.37)"  >
<path style="stroke: none; stroke-width: 1; stroke-dasharray: none; stroke-linecap: butt; stroke-dashoffset: 0; stroke-linejoin: miter; stroke-miterlimit: 4; fill: rgb(0,0,0); fill-rule: nonzero; opacity: 1;" vector-effect="non-scaling-stroke"  transform=" translate(-1646.21, -110.19)" d="M 1625 109 C 1561 94 1555 91 1596 95 C 1624 98 1666 106 1691 114 C 1752 133 1721 131 1625 109 z" stroke-linecap="round" />
</g>
		<g transform="matrix(0.13 0 0 -0.13 -27.12 180.83)"  >
<path style="stroke: none; stroke-width: 1; stroke-dasharray: none; stroke-linecap: butt; stroke-dashoffset: 0; stroke-linejoin: miter; stroke-miterlimit: 4; fill: rgb(0,0,0); fill-rule: nonzero; opacity: 1;" vector-effect="non-scaling-stroke"  transform=" translate(-1236.6, -84.25)" d="M 1213 83 C 1228 81 1250 81 1263 83 C 1275 85 1263 87 1235 87 C 1208 87 1197 85 1213 83 z" stroke-linecap="round" />
</g>
		<g transform="matrix(0.13 0 0 -0.13 -3.33 181.4)"  >
<path style="stroke: none; stroke-width: 1; stroke-dasharray: none; stroke-linecap: butt; stroke-dashoffset: 0; stroke-linejoin: miter; stroke-miterlimit: 4; fill: rgb(0,0,0); fill-rule: nonzero; opacity: 1;" vector-effect="non-scaling-stroke"  transform=" translate(-1415, -80)" d="M 1365 80 L 1285 74 L 1355 73 C 1394 73 1452 76 1485 80 L 1545 87 L 1495 87 C 1468 86 1409 83 1365 80 z" stroke-linecap="round" />
</g>
		<g transform="matrix(0.13 0 0 -0.13 51.06 -127.27)"  >
<path style="stroke: none; stroke-width: 1; stroke-dasharray: none; stroke-linecap: butt; stroke-dashoffset: 0; stroke-linejoin: miter; stroke-miterlimit: 4; fill: rgb(0,0,0); fill-rule: nonzero; opacity: 1;" vector-effect="non-scaling-stroke"  transform=" translate(-1822.97, -2395)" d="M 1773 2453 L 1820 2405 L 1763 2348 C 1731 2316 1711 2290 1717 2290 C 1723 2290 1751 2314 1779 2342 L 1829 2395 L 1880 2345 C 1907 2318 1930 2300 1930 2306 C 1930 2318 1748 2500 1735 2500 C 1730 2500 1747 2479 1773 2453 z" stroke-linecap="round" />
</g>
		<g transform="matrix(0.13 0 0 -0.13 3.17 11.33)"  >
<path style="stroke: none; stroke-width: 1; stroke-dasharray: none; stroke-linecap: butt; stroke-dashoffset: 0; stroke-linejoin: miter; stroke-miterlimit: 4; fill: rgb(0,0,0); fill-rule: nonzero; opacity: 1;" vector-effect="non-scaling-stroke"  transform=" translate(-1463.77, -1355.51)" d="M 1800 1848 L 1475 1527 L 1470 1821 L 1465 2115 L 1440 2115 L 1415 2115 L 1412 1790 L 1410 1465 L 1343 1398 L 1276 1330 L 1039 1566 C 903 1701 796 1800 788 1798 C 748 1784 773 1752 1016 1509 C 1153 1372 1270 1260 1275 1260 C 1281 1260 1312 1287 1345 1320 L 1405 1381 L 1410 963 L 1415 545 L 1440 545 L 1465 545 L 1470 995 L 1475 1445 L 1820 1787 C 2115 2080 2163 2131 2154 2146 C 2148 2156 2139 2165 2134 2166 C 2129 2168 1979 2025 1800 1848 z" stroke-linecap="round" />
</g>
</g>
</g>
</svg>