<?xml version="1.0" standalone="no"?>
<!DOCTYPE svg PUBLIC "-//W3C//DTD SVG 20010904//EN"
 "http://www.w3.org/TR/2001/REC-SVG-20010904/DTD/svg10.dtd">
<svg version="1.0" xmlns="http://www.w3.org/2000/svg"
 width="288.000000pt" height="288.000000pt" viewBox="0 0 288.000000 288.000000"
 preserveAspectRatio="xMidYMid meet">

<g transform="translate(0.000000,288.000000) scale(0.100000,-0.100000)"
fill="#000000" stroke="none">
<path d="M1265 2856 c-339 -51 -600 -180 -831 -410 -486 -487 -559 -1224 -177
-1800 132 -199 361 -397 574 -494 401 -185 817 -185 1218 0 281 129 550 398
679 679 185 401 185 817 0 1218 -129 282 -397 550 -679 679 -251 116 -545 164
-784 128z m480 -40 c55 -13 134 -37 175 -52 73 -26 250 -110 250 -118 0 -3
-33 11 -74 29 -176 82 -320 115 -532 122 -190 6 -308 -9 -470 -62 -372 -122
-700 -407 -850 -741 -21 -45 -42 -80 -47 -77 -6 4 -8 -3 -5 -15 4 -12 2 -20
-2 -17 -22 13 -70 -299 -70 -450 1 -96 23 -263 46 -345 4 -14 4 -22 0 -18 -13
12 -54 174 -66 267 -17 121 -7 357 19 471 11 47 34 126 51 175 120 336 337
572 670 728 131 62 166 68 50 10 -148 -75 -245 -146 -365 -267 -114 -115 -181
-206 -247 -336 -43 -84 -81 -180 -74 -187 2 -2 10 13 16 34 52 157 176 351
314 488 196 194 420 314 704 376 126 28 366 21 507 -15z m50 -51 c95 -21 215
-61 304 -101 40 -19 78 -31 84 -27 6 3 7 1 3 -5 -4 -7 7 -18 26 -28 196 -101
383 -311 501 -564 62 -131 68 -166 10 -50 -75 148 -146 245 -267 365 -115 114
-206 181 -336 247 -84 43 -180 81 -187 74 -2 -2 13 -10 34 -16 157 -52 351
-176 488 -314 199 -200 326 -444 380 -731 35 -184 8 -438 -71 -655 -27 -77
-110 -250 -119 -250 -3 0 4 18 15 39 27 54 80 189 80 204 -1 6 -16 -27 -34
-74 -19 -47 -44 -105 -55 -128 -12 -23 -19 -47 -15 -54 4 -7 4 -9 -1 -5 -4 4
-35 -33 -67 -83 -120 -186 -297 -334 -528 -442 -109 -51 -167 -71 -110 -37 40
24 38 23 -47 -9 -36 -13 -60 -28 -56 -34 3 -6 1 -7 -5 -3 -7 4 -60 -6 -119
-21 -99 -26 -122 -28 -283 -27 -191 0 -272 14 -450 76 -83 30 -260 113 -260
123 0 3 26 -8 58 -24 109 -55 328 -122 392 -120 14 0 -16 9 -67 20 -171 36
-352 111 -497 207 -172 113 -326 301 -429 522 -62 131 -68 166 -10 50 73 -145
146 -245 262 -361 217 -217 463 -339 786 -389 262 -40 495 -16 735 77 8 3 12
2 8 -2 -4 -4 -53 -25 -110 -46 -57 -21 -98 -38 -91 -39 12 0 148 49 195 70 15
7 25 17 21 23 -3 6 -1 7 5 3 17 -10 130 56 242 140 183 138 326 311 421 506
45 93 43 70 -3 -37 -115 -267 -310 -480 -584 -641 -43 -25 -70 -43 -59 -40 31
10 167 94 238 147 89 67 233 221 296 315 115 174 186 365 221 589 34 221 22
426 -35 612 -13 42 -22 79 -20 81 7 7 74 -216 89 -294 7 -44 14 -68 15 -54 3
81 -97 399 -120 384 -5 -3 -6 2 -3 10 3 8 -9 41 -27 73 -159 283 -390 504
-645 619 -45 21 -80 42 -77 47 4 6 -3 8 -15 5 -12 -4 -20 -2 -17 2 6 10 -100
34 -240 55 -186 28 -400 14 -565 -35 -35 -11 -66 -18 -68 -15 -11 10 172 58
338 89 55 10 377 -3 445 -19z m-85 -53 c635 -148 1057 -694 1027 -1332 -34
-719 -639 -1270 -1357 -1237 -719 34 -1270 639 -1237 1357 24 501 326 938 787
1135 89 38 233 79 335 95 96 14 347 4 445 -18z m-1499 -599 c-37 -74 -85 -219
-108 -325 -14 -64 -18 -127 -18 -278 1 -177 3 -205 27 -300 69 -275 193 -496
393 -696 117 -119 223 -195 367 -265 93 -45 70 -43 -37 3 -410 177 -703 553
-790 1013 -35 184 -8 438 71 655 27 77 110 250 119 250 3 0 -8 -26 -24 -57z
m1669 -2013 c-8 -5 -22 -9 -30 -9 -10 0 -8 3 5 9 27 12 43 12 25 0z"/>
<path d="M2794 1365 c0 -88 2 -123 3 -77 2 46 2 118 0 160 -1 42 -3 5 -3 -83z"/>
<path d="M2782 1170 c0 -19 2 -27 5 -17 2 9 2 25 0 35 -3 9 -5 1 -5 -18z"/>
<path d="M2758 1053 c-10 -42 -16 -78 -14 -80 5 -6 39 134 34 147 -1 5 -11
-24 -20 -67z"/>
<path d="M1625 109 c-64 -15 -70 -18 -29 -14 28 3 70 11 95 19 61 19 30 17
-66 -5z"/>
<path d="M1213 83 c15 -2 37 -2 50 0 12 2 0 4 -28 4 -27 0 -38 -2 -22 -4z"/>
<path d="M1365 80 l-80 -6 70 -1 c39 0 97 3 130 7 l60 7 -50 0 c-27 -1 -86 -4
-130 -7z"/>
<path d="M1773 2453 l47 -48 -57 -57 c-32 -32 -52 -58 -46 -58 6 0 34 24 62
52 l50 53 51 -50 c27 -27 50 -45 50 -39 0 12 -182 194 -195 194 -5 0 12 -21
38 -47z"/>
<path d="M1800 1848 l-325 -321 -5 294 -5 294 -25 0 -25 0 -3 -325 -2 -325
-67 -67 -67 -68 -237 236 c-136 135 -243 234 -251 232 -40 -14 -15 -46 228
-289 137 -137 254 -249 259 -249 6 0 37 27 70 60 l60 61 5 -418 5 -418 25 0
25 0 5 450 5 450 345 342 c295 293 343 344 334 359 -6 10 -15 19 -20 20 -5 2
-155 -141 -334 -318z"/>
</g>
</svg>
